PathFileType	4	(X/Y/Z)	C:\Users\chris\Documents\GitHub\baseballds\vids\pitch5_Sports2D\pitch5_Sports2D_px_person04.trc
DataRate	CameraRate	NumFrames	NumMarkers	Units	OrigDataRate	OrigDataStartFrame	OrigNumFrames
30	30	7	22	m	30	111	149
Frame#	Time	Hip			RHip			RKnee			RAnkle			RBigToe			RSmallToe			RHeel			LHip			LKnee			LAnkle			LBigToe			LSmallToe			LHeel			Neck			Head			Nose			RShoulder			RElbow			RWrist			LShoulder			LElbow			LWrist		
		X1	Y1	Z1	X2	Y2	Z2	X3	Y3	Z3	X4	Y4	Z4	X5	Y5	Z5	X6	Y6	Z6	X7	Y7	Z7	X8	Y8	Z8	X9	Y9	Z9	X10	Y10	Z10	X11	Y11	Z11	X12	Y12	Z12	X13	Y13	Z13	X14	Y14	Z14	X15	Y15	Z15	X16	Y16	Z16	X17	Y17	Z17	X18	Y18	Z18	X19	Y19	Z19	X20	Y20	Z20	X21	Y21	Z21	X22	Y22	Z22
111	3.6999999999999997	914.1580391294301	519.5575334678717	0.0	891.6404916024004	520.4565841026466	0.0	875.5848695399986	577.9845254454073	0.0	858.9197494061365	634.7314641419593	0.0	861.134911023395	653.8598866983864	0.0	844.999088789367	652.9581299689557	0.0	859.2891269951533	643.8146262888367	0.0	929.7029833049728	520.5212764066671	0.0	939.9132166226703	576.4259337497879	0.0	943.9325411740551	633.4614423690915	0.0	953.0334901917063	642.627378944268	0.0	962.0969614626122	639.5717207542818	0.0	949.9274232760083	636.38252778966	0.0	909.0964501739126	433.0308013051571	0.0	906.1876799334566	377.36222178465937	0.0	898.4435418939811	409.0760120087072	0.0	879.0971671894399	442.1251928258033	0.0	868.4565438391156	478.39828516271194	0.0	876.3744803985533	516.0566383622933	0.0	943.7456131551135	441.9413528611271	0.0	967.528153628892	470.8124719951216	0.0	971.3179616598936	520.7585561049214	0.0
112	3.7333333333333334	869.075691247516	526.9191713194546	0.0	844.7900855770581	527.8948327717105	0.0	827.087681502177	590.8589608792761	0.0	808.715515443308	652.8518401632707	0.0	811.3467228809633	673.9906457316876	0.0	793.7169634956686	673.0184841840994	0.0	808.6840338518499	662.9603352669441	0.0	886.0430066310088	528.0264447232098	0.0	896.8276448534295	588.963145818803	0.0	901.4598379962149	651.8366576277257	0.0	910.0574284869629	662.6624354851997	0.0	920.6137878480461	659.2413256124952	0.0	907.3367347027523	655.6416579492807	0.0	863.8546786833946	430.72813463364815	0.0	861.2864765385852	370.02870731928914	0.0	854.1942716677877	404.51198408765737	0.0	830.9885322642435	441.04482825679713	0.0	819.6329688285534	481.77743483584453	0.0	828.5359447388287	523.1086938070457	0.0	901.1563456057887	441.19792231307287	0.0	926.0071937899273	473.565615465526	0.0	930.34416784111	527.612406680594	0.0
113	3.7666666666666666	834.0778354221826	535.4597027082227	0.0	810.2462056087602	536.8012108567148	0.0	791.9549931666324	602.1295215742136	0.0	772.8120586945518	666.0272371373133	0.0	776.0851710395563	688.9520175561239	0.0	758.2146866441171	687.6296392225853	0.0	771.3722530865555	676.5250410052473	0.0	851.7745059082716	537.3522486799751	0.0	860.2387428143727	600.350533612438	0.0	864.6154414606439	668.0230590293122	0.0	872.2261556004431	681.6217282507748	0.0	883.3013770611448	677.9463554707488	0.0	867.3582411590182	674.2680689053609	0.0	830.9602831881596	427.58917554623804	0.0	831.3483094188192	366.1110559397297	0.0	829.1995664494044	400.914200889562	0.0	796.6136866689371	440.0653498448896	0.0	785.4746615210515	486.7965770424835	0.0	794.6690058392444	530.9142690714392	0.0	866.5981224435982	441.92673864623634	0.0	886.977752788283	480.0389780486949	0.0	892.3529955837146	534.2134920119997	0.0
114	3.8	816.4430619376382	543.0322668067884	0.0	794.9148868131683	544.9974974409905	0.0	777.1742688656839	609.3516924582304	0.0	757.7739097604233	671.370915852999	0.0	761.9416885230263	696.216796931755	0.0	744.999863120481	694.2695344885	0.0	754.3761368816274	681.5253659073389	0.0	834.0232194145901	546.1354925772346	0.0	838.0204227332372	608.556751458535	0.0	840.9269818338636	679.1222273710308	0.0	851.2698946668697	695.6231125851751	0.0	860.3646699124114	691.8941707107576	0.0	838.4355690591433	688.8413953158635	0.0	816.8613202569459	424.103107707287	0.0	821.9305089856883	365.8461296820496	0.0	827.2444030417048	398.8683351900633	0.0	782.6785955730295	439.3269706828248	0.0	772.5912872890666	491.9436927625042	0.0	781.7866747323376	537.7224634493859	0.0	847.1871968533633	443.71130887837813	0.0	859.0811323931239	488.4600208647638	0.0	865.7701617097706	539.6053747039341	0.0
115	3.8333333333333335	814.0883968247143	546.0902991324788	0.0	794.5683571379496	548.4004670186876	0.0	777.6794421259741	611.7538344223985	0.0	757.2927724798255	670.481761870863	0.0	762.2431335703857	697.4898678032409	0.0	746.6231425481687	694.8957276894234	0.0	752.6056091657329	679.7189386181536	0.0	831.19754998625	549.980679364581	0.0	831.364519701717	612.7399830433475	0.0	832.1446516213024	684.0557481356967	0.0	850.0591767479302	702.0486406477444	0.0	855.2007894726476	698.3748091509256	0.0	825.5858060373453	696.3132979486282	0.0	816.9146454245972	421.4150635532982	0.0	825.3612066534539	366.65098351357335	0.0	835.9448153507004	398.0231940859536	0.0	783.5401332014585	438.8839405074442	0.0	774.5131800307183	494.7891009560733	0.0	784.1944617839968	541.5072945107001	0.0	842.5092320548263	444.859485112605	0.0	847.6378933743498	494.10261643534994	0.0	854.5470912998433	542.6600981449096	0.0
116	3.8666666666666667	818.046607171716	544.1033579758534	0.0	799.1387513760367	545.8554905750096	0.0	782.9111952488296	611.161591114301	0.0	760.2473333113991	667.4169047480391	0.0	765.2640620029964	696.4130527090484	0.0	751.0097961388394	693.2602805948721	0.0	755.5644279630912	675.3539527578662	0.0	834.9608981414391	547.6323707029229	0.0	833.229789674453	614.0017164558101	0.0	832.0046415023062	684.7405949340175	0.0	856.7081766844669	702.8338137992733	0.0	858.7134672520853	699.1816385558645	0.0	823.9585811979575	697.5786524419399	0.0	821.4779793217482	419.82384085044544	0.0	830.7429274722036	366.4713116500836	0.0	842.7290183664699	397.54377758900836	0.0	788.4982059172373	438.63132130857014	0.0	779.9607588407629	495.00024871625266	0.0	790.5301908634519	542.2331176209011	0.0	845.2345793495919	444.43908727280694	0.0	848.0557497063244	494.87785941532167	0.0	853.0036251468947	541.7659298288796	0.0
117	3.9	821.6100168908233	540.7646979087785	0.0	802.6943570463303	541.3965583416998	0.0	787.28335321135	609.8976701074967	0.0	761.7287727438036	664.6199980660598	0.0	765.7352730288802	695.3291990134991	0.0	752.7212470693398	691.5841415481327	0.0	757.9074610028888	671.3105137975331	0.0	838.8040869680144	542.9940182630639	0.0	836.2590454230866	613.7595608314201	0.0	833.3311697736717	683.9756293469077	0.0	859.7238649936944	702.0148510959293	0.0	861.026037870937	698.3058385546076	0.0	825.2117306207462	696.2134703625227	0.0	825.2458353322818	418.8708909126334	0.0	834.1933703333572	365.4401528972037	0.0	845.6719646779429	396.9877608740278	0.0	792.2793468626562	438.39003557211873	0.0	783.6601789470135	493.9542638485427	0.0	795.0233955171706	541.5152652480498	0.0	848.8161306067841	443.1103988287515	0.0	852.1485021623732	492.47733947300526	0.0	855.0271017803238	534.4061523307302	0.0
